<?xml version="1.0" encoding="UTF-8" standalone="no"?>
<svg width="800" height="900" xmlns="http://www.w3.org/2000/svg" xmlns:xlink="http://www.w3.org/1999/xlink">
  <defs>
    <style>
      .title { font-family: Arial, sans-serif; font-size: 18px; font-weight: bold; fill: #333; }
      .subtitle { font-family: Arial, sans-serif; font-size: 14px; font-weight: bold; fill: #555; }
      .text { font-family: Arial, sans-serif; font-size: 12px; fill: #333; }
      .box { fill: #ffffff; stroke: #333; stroke-width: 2; }
      .layer0 { fill: #e1f5fe; stroke: #01579b; stroke-width: 2; }
      .layer1 { fill: #f3e5f5; stroke: #4a148c; stroke-width: 2; }
      .layer2 { fill: #e8f5e9; stroke: #1b5e20; stroke-width: 2; }
      .layer3 { fill: #fff3e0; stroke: #e65100; stroke-width: 2; }
      .layer4 { fill: #fce4ec; stroke: #880e4f; stroke-width: 2; }
      .layer5 { fill: #e0f2f1; stroke: #004d40; stroke-width: 2; }
      .arrow { stroke: #333; stroke-width: 2; fill: none; marker-end: url(#arrowhead); }
      .dashed { stroke-dasharray: 5,5; }
    </style>
    <marker id="arrowhead" markerWidth="10" markerHeight="10" refX="9" refY="3" orient="auto">
      <polygon points="0 0, 10 3, 0 6" fill="#333" />
    </marker>
  </defs>

  <!-- Title -->
  <text x="400" y="30" class="title" text-anchor="middle">Internal Developer Platform Architecture</text>
  <text x="400" y="50" class="text" text-anchor="middle">Red Hat OpenShift - 2 Hour Hands-on Lab</text>

  <!-- Layer 5: Developer Portal -->
  <rect x="50" y="80" width="700" height="80" class="layer5" rx="5"/>
  <text x="400" y="105" class="subtitle" text-anchor="middle">Layer 5: Developer Portal</text>
  <rect x="200" y="115" width="400" height="35" class="box" rx="3"/>
  <text x="400" y="135" class="text" text-anchor="middle">Red Hat Developer Hub (Backstage)</text>

  <!-- Layer 4: Developer Tools -->
  <rect x="50" y="180" width="700" height="80" class="layer4" rx="5"/>
  <text x="400" y="205" class="subtitle" text-anchor="middle">Layer 4: Developer Tools</text>
  <rect x="120" y="215" width="250" height="35" class="box" rx="3"/>
  <text x="245" y="235" class="text" text-anchor="middle">OpenShift Dev Spaces</text>
  <rect x="430" y="215" width="280" height="35" class="box" rx="3"/>
  <text x="570" y="235" class="text" text-anchor="middle">Trusted Artifact Signer</text>

  <!-- Layer 3: Registry & GitOps -->
  <rect x="50" y="280" width="700" height="80" class="layer3" rx="5"/>
  <text x="400" y="305" class="subtitle" text-anchor="middle">Layer 3: Registry & App GitOps</text>
  <rect x="120" y="315" width="250" height="35" class="box" rx="3"/>
  <text x="245" y="335" class="text" text-anchor="middle">Red Hat Quay</text>
  <rect x="430" y="315" width="280" height="35" class="box" rx="3"/>
  <text x="570" y="335" class="text" text-anchor="middle">ArgoCD (rhdh-gitops)</text>

  <!-- Layer 2: CI/CD & Secrets -->
  <rect x="50" y="380" width="700" height="80" class="layer2" rx="5"/>
  <text x="400" y="405" class="subtitle" text-anchor="middle">Layer 2: CI/CD & Secrets</text>
  <rect x="120" y="415" width="250" height="35" class="box" rx="3"/>
  <text x="245" y="435" class="text" text-anchor="middle">OpenShift Pipelines (Tekton)</text>
  <rect x="430" y="415" width="280" height="35" class="box" rx="3"/>
  <text x="570" y="435" class="text" text-anchor="middle">External Secrets Operator</text>

  <!-- Layer 1: Platform GitOps -->
  <rect x="50" y="480" width="700" height="80" class="layer1" rx="5"/>
  <text x="400" y="505" class="subtitle" text-anchor="middle">Layer 1: Platform GitOps</text>
  <rect x="200" y="515" width="400" height="35" class="box" rx="3"/>
  <text x="400" y="535" class="text" text-anchor="middle">OpenShift GitOps (ArgoCD)</text>

  <!-- Layer 0: Pre-installed Foundation -->
  <rect x="50" y="580" width="700" height="120" class="layer0" rx="5"/>
  <text x="400" y="605" class="subtitle" text-anchor="middle">Layer 0: Pre-installed Foundation</text>
  <rect x="80" y="620" width="130" height="30" class="box" rx="3"/>
  <text x="145" y="638" class="text" text-anchor="middle">GitLab</text>
  <rect x="230" y="620" width="130" height="30" class="box" rx="3"/>
  <text x="295" y="638" class="text" text-anchor="middle">Vault</text>
  <rect x="380" y="620" width="130" height="30" class="box" rx="3"/>
  <text x="445" y="638" class="text" text-anchor="middle">Keycloak (RHBK)</text>
  <rect x="530" y="620" width="130" height="30" class="box" rx="3"/>
  <text x="595" y="638" class="text" text-anchor="middle">NooBaa</text>
  <rect x="230" y="660" width="340" height="30" class="box" rx="3"/>
  <text x="400" y="678" class="text" text-anchor="middle">OpenShift Container Platform</text>

  <!-- Arrows showing deployment flow -->
  <path d="M 400 550 L 400 580" class="arrow"/>
  <path d="M 400 455 L 400 480" class="arrow"/>
  <path d="M 400 355 L 400 380" class="arrow"/>
  <path d="M 400 255 L 400 280" class="arrow"/>
  <path d="M 400 155 L 400 180" class="arrow"/>

  <!-- Cross-layer connections -->
  <path d="M 570 355 L 570 370 L 245 370 L 245 415" class="arrow dashed"/>
  <text x="350" y="365" class="text" style="font-size: 10px;">Push Images</text>

  <path d="M 570 455 L 570 470 L 295 470 L 295 620" class="arrow dashed"/>
  <text x="380" y="550" class="text" style="font-size: 10px;">Sync Secrets</text>

  <!-- Legend -->
  <rect x="50" y="720" width="700" height="160" class="box" rx="5"/>
  <text x="400" y="740" class="subtitle" text-anchor="middle">Deployment Flow</text>

  <text x="70" y="765" class="text">1. Platform team updates Helm charts in GitLab</text>
  <text x="70" y="785" class="text">2. ArgoCD (Platform) deploys components layers 2-5</text>
  <text x="70" y="805" class="text">3. Developer uses RHDH to create app from template</text>
  <text x="70" y="825" class="text">4. Template creates GitLab repo + ArgoCD Application + Tekton Pipeline</text>
  <text x="70" y="845" class="text">5. Developer pushes code → Pipeline builds → Signs → Pushes to Quay</text>
  <text x="70" y="865" class="text">6. ArgoCD (Apps) deploys to OpenShift</text>

  <!-- Key points -->
  <line x1="420" y1="760" x2="720" y2="760" stroke="#333" stroke-width="1"/>
  <text x="430" y="775" class="text" style="font-weight: bold;">Key Points:</text>
  <text x="430" y="795" class="text">• GitOps: Git is source of truth</text>
  <text x="430" y="815" class="text">• Two ArgoCD instances (Platform + Apps)</text>
  <text x="430" y="835" class="text">• SSO via Keycloak for all services</text>
  <text x="430" y="855" class="text">• Secrets managed by Vault + ESO</text>
</svg>
